<svg xmlns="http://www.w3.org/2000/svg" width="512" height="512" fill="none"><path fill="#FFE01B" d="M0 0h512v512H0z"/><path fill="#241C15" fill-rule="evenodd" d="M337.802 245.85h7.755c1.293-2.585 1.293-7.755 0-13.572-1.292-8.401-3.877-12.925-8.401-12.925-5.171 1.292-5.171 7.109-3.232 15.51.647 4.524 2.585 8.402 4.524 10.987h-.646Zm-40.715 6.463c3.231 1.938 5.17 2.585 6.462 1.938l-.646-3.231c-1.939-2.585-5.17-5.17-9.048-6.463a24.564 24.564 0 0 0-23.912 2.585c-1.939 1.293-4.524 3.878-3.878 5.171l1.293.646c1.939 0 8.401-2.585 16.157-3.231 5.17 0 9.694 1.292 12.925 2.585h.647Zm-7.11 4.524c-4.523 0-6.462 1.938-8.401 3.231l-2.585 3.231v1.293h1.292l3.232-.646c6.462-2.585 10.34-1.939 14.218-1.939h3.877v-1.293c-.646-1.939-5.816-5.17-11.633-3.877Zm34.253 14.218c3.231 1.292 6.463 1.292 7.755-1.293.647-1.939-.646-5.17-3.877-6.463-2.585-1.938-6.463-1.292-7.109 1.293-1.293 1.939 0 5.17 3.231 6.463Zm19.388-17.45c-1.938 0-3.877 3.232-4.524 6.463 0 3.231 1.939 6.463 4.524 6.463s4.524-3.232 4.524-6.463-1.939-6.463-3.877-6.463h-.647ZM174.94 315.001c-1.292 0-1.938.647-2.585 0a5.174 5.174 0 0 1-4.524-1.292v-7.755l1.293-1.293c1.939-4.524 5.17-11.633 1.292-19.388a16.81 16.81 0 0 0-5.334-6.136 16.815 16.815 0 0 0-7.591-2.912c-5.17-.646-10.987 1.292-14.218 5.17-5.817 6.463-6.463 14.218-5.17 17.45l1.292 1.292c.646 0 2.585-.646 3.232-3.231 0-1.939 1.292-3.878 2.585-6.463 1.292-1.939 3.231-3.231 6.462-3.878 2.586 0 5.171 0 7.109 1.293 3.878 2.585 5.171 7.755 3.878 12.279-.646 1.939-2.585 6.463-1.939 10.34 0 7.11 5.17 10.341 9.048 10.341s6.463-1.939 7.755-3.232v-1.938c-.646-.647-1.938 0-2.585 0v-.647Zm232.66 11.633c-3.232 14.865-9.694 27.79-20.681 38.777-6.463 7.755-14.864 14.218-23.912 18.742l-15.511 6.463c-41.362 13.571-84.016-1.293-97.588-33.607a66.573 66.573 0 0 1 11.633-69.151l1.939-3.878-1.292-3.231c-5.817-8.402-24.559-21.327-20.681-47.825 2.585-18.095 19.388-31.667 34.252-31.021h3.878l17.45 1.939c9.047 0 17.449-.646 27.143-9.048 3.231-2.585 5.817-5.17 10.34-5.816h3.878c1.939 0 4.524 0 6.463 1.938 7.755 5.171 9.048 17.45 9.048 26.498l1.292 21.327c0 8.401 2.585 9.694 6.463 10.987l8.402 2.585a45.238 45.238 0 0 1 20.681 9.694c1.938 2.585 3.231 4.524 3.231 7.109 1.292 9.048-6.463 19.388-27.79 29.729a142.18 142.18 0 0 1-71.09 11.632l-6.463-1.292c-16.157-1.939-24.559 18.742-15.511 32.314 6.463 9.048 22.62 14.864 38.777 14.864 38.13 0 66.566-16.157 77.553-30.375l.646-1.292c0-1.293.646-.647 0 0-9.048 5.17-48.47 29.728-90.478 21.973 0 0-4.524 0-9.048-2.585-3.878-1.293-11.633-4.524-12.926-12.926 34.253 10.341 55.58.647 55.58.647v-.647l-.646-1.292s-27.79 4.524-53.641-5.17c2.585-9.695 10.34-6.463 21.327-5.171 20.681 1.293 39.423-1.938 52.995-5.816 11.632-3.232 27.143-10.341 39.422-19.388 3.878 8.401 5.817 18.742 5.817 18.742s3.231-.647 5.816.646c1.939 1.939 3.878 5.17 2.585 12.925h.647ZM215.009 179.283c12.926-15.51 29.083-28.436 43.301-35.545h.646l-3.877 10.341c0 .646 0 1.292.646.646 9.048-6.463 24.558-12.926 38.13-12.926 0 0 .646 0 0 .647a32.266 32.266 0 0 0-5.816 6.463h.646c9.694 0 23.266 3.877 32.314 9.047 0 0 0 1.293-1.293 1.293a128.601 128.601 0 0 0-103.404 20.681c-1.293 0-1.939 0-1.293-.647Zm-67.212 71.091a45.239 45.239 0 0 0-28.436 18.742 77.587 77.587 0 0 1-12.28-11.633c-9.694-19.388 10.987-56.872 25.851-78.2 36.838-51.702 93.71-91.77 120.854-84.662 3.878 1.293 18.096 17.45 18.096 17.45s-25.851 14.864-50.41 35.545a232.671 232.671 0 0 0-73.029 103.404l-.646-.646Zm19.388 88.54h-5.17c-17.45 0-36.838-16.157-38.777-34.899-1.939-20.681 8.402-36.838 27.79-40.716a32.308 32.308 0 0 1 7.755-.646c10.341 0 25.851 8.402 29.729 32.314 3.232 19.388-1.939 40.715-21.327 43.947Zm239.122-36.838-1.939-8.402-3.231-7.755a24.56 24.56 0 0 0-2.585-33.606 58.168 58.168 0 0 0-25.205-12.926l-6.463-1.292v-21.974c0-4.524-.646-11.633-3.231-19.388a51.7 51.7 0 0 0-12.926-23.266c16.157-16.803 25.851-35.545 25.851-51.702 0-29.729-37.484-38.777-83.369-19.388l-9.694 3.231-16.803-17.45C214.363 42.92 50.855 225.17 103.204 269.117l10.986 10.34a56.887 56.887 0 0 0-2.585 25.851 51.702 51.702 0 0 0 17.45 32.96 53.641 53.641 0 0 0 34.252 14.218 132.49 132.49 0 0 0 121.5 77.554c58.165 1.938 107.928-25.852 127.963-75.615 1.292-3.231 7.109-19.388 7.109-32.314 0-14.218-7.755-20.034-12.926-20.034h-.646Z" clip-rule="evenodd"/></svg>